<?xml version="1.0" encoding="UTF-8"?>
<svg width="48px" height="48px" viewBox="0 0 48 48" version="1.1" xmlns="http://www.w3.org/2000/svg" xmlns:xlink="http://www.w3.org/1999/xlink">
    <!-- Generator: Sketch 50.2 (55047) - http://www.bohemiancoding.com/sketch -->
    <title>QQ</title>
    <desc>Created with Sketch.</desc>
    <defs></defs>
    <g id="QQ" stroke="none" stroke-width="1" fill="none" fill-rule="evenodd">
        <g fill-rule="nonzero">
            <path d="M0,24 C0,10.7451654 10.7451654,0 24,0 C37.2548346,0 48,10.7451654 48,24 C48,37.2548346 37.2548346,48 24,48 C10.7451654,48 0,37.2548346 0,24 Z" id="back" fill="#FFFFFF"></path>
            <g id="Group" transform="translate(11.200000, 8.800000)">
                <path d="M23.36832,29.07352 C23.18352,30.53432 20.79952,31.43352 18.04592,31.08392 C15.29312,30.73272 13.21072,29.26392 13.39792,27.80232 C13.58352,26.34152 15.96672,25.44152 18.71952,25.79272 C21.47392,26.14312 23.55392,27.61272 23.36832,29.07352" id="Fill-1" fill="#E48013"></path>
                <path d="M2.58976,28.93248 C2.80656,30.39728 5.28256,31.33488 8.12336,31.02848 C10.96336,30.72048 13.08896,29.28368 12.87216,27.81808 C12.65616,26.35408 10.17696,25.41568 7.33776,25.72368 C4.49776,26.03088 2.37056,27.46768 2.58976,28.93248" id="Fill-2" fill="#E48013"></path>
                <path d="M23.12184,9.8872 C23.12184,15.3464 18.66184,19.7736 13.15784,19.7736 C7.65704,19.7736 3.19624,15.3464 3.19624,9.8872 C3.19624,4.4256 7.65704,-7.10542736e-15 13.15784,-7.10542736e-15 C18.66184,-7.10542736e-15 23.12184,4.4256 23.12184,9.8872" id="Fill-3" fill="#000000"></path>
                <path d="M2.50232,28.64112 C2.71912,30.10592 5.19512,31.04352 8.03592,30.73712 C10.87592,30.42912 13.00152,28.99232 12.78472,27.52672 C12.56872,26.06272 10.08952,25.12432 7.25032,25.43232 C4.41032,25.73952 2.28312,27.17632 2.50232,28.64112" id="Fill-4" fill="#F5A519"></path>
                <path d="M23.4808,28.7196 C23.296,30.1804 20.912,31.0796 18.1584,30.73 C15.4056,30.3788 13.3232,28.91 13.5104,27.4484 C13.696,25.9876 16.0792,25.0876 18.832,25.4388 C21.5864,25.7892 23.6664,27.2588 23.4808,28.7196" id="Fill-5" fill="#F5A519"></path>
                <path d="M22.62376,20.8364 C22.62376,25.2596 18.31896,28.8452 13.01096,28.8452 C7.70296,28.8452 3.39976,25.2596 3.39976,20.8364 C3.39976,16.4132 7.70296,12.8276 13.01096,12.8276 C18.31896,12.8276 22.62376,16.4132 22.62376,20.8364" id="Fill-6" fill="#000000"></path>
                <path d="M4.97264,19.24496 C3.56144,22.06176 1.34784,23.84496 0.69024,23.49536 C-0.17936,23.03136 -0.38976,20.18576 1.02224,17.36976 C2.43584,14.55456 4.71424,12.75056 5.80544,13.29696 C6.89424,13.84496 6.38464,16.42896 4.97264,19.24496" id="Fill-7" fill="#000000"></path>
                <path d="M21.20112,19.59968 C22.49232,22.15888 24.35232,24.14528 25.14752,23.97008 C25.78912,23.82928 26.24752,20.83648 25.07232,17.97008 C23.87792,15.05568 21.71152,12.96288 20.61952,13.51008 C19.52912,14.05728 19.78192,16.78768 21.20112,19.59968" id="Fill-8" fill="#000000"></path>
                <path d="M5.96008,15.80512 C5.36648,17.02272 5.02648,18.40672 5.02648,19.87712 C5.02648,24.73152 8.68328,28.66672 13.19448,28.66672 C17.70568,28.66672 21.36168,24.73152 21.36168,19.87712 C21.36168,18.44672 21.03768,17.10032 20.47448,15.90672 C16.31768,18.02592 8.70648,16.47312 5.96008,15.80512" id="Fill-9" fill="#FFFFFF"></path>
                <path d="M12.47264,7.60752 C12.47264,8.92592 11.59984,9.99472 10.52224,9.99472 C9.44544,9.99472 8.57264,8.92592 8.57264,7.60752 C8.57264,6.28912 9.44544,5.22032 10.52224,5.22032 C11.59984,5.22032 12.47264,6.28912 12.47264,7.60752" id="Fill-10" fill="#FFFFFF"></path>
                <path d="M18.07224,7.6208 C18.07224,8.9392 17.19944,10.008 16.12184,10.008 C15.04584,10.008 14.17224,8.9392 14.17224,7.6208 C14.17224,6.3024 15.04584,5.2336 16.12184,5.2336 C17.19944,5.2336 18.07224,6.3024 18.07224,7.6208" id="Fill-11" fill="#FFFFFF"></path>
                <path d="M13.4988,10.66104 C10.7836,10.66104 8.4124,11.29544 7.0964,12.24184 C7.426,13.01864 8.422,13.62344 9.3988,14.18504 C10.5788,14.86344 12.5172,15.32264 13.4924,15.32264 C14.3924,15.32264 16.6204,14.71624 17.8236,13.92984 C18.67,13.37784 19.5628,12.89064 19.8876,12.23224 C18.5692,11.29144 16.2052,10.66104 13.4988,10.66104" id="Fill-12" fill="#F5A519"></path>
                <path d="M12.17104,7.6208 C12.17104,8.4552 11.62464,9.132 10.95184,9.132 C10.27824,9.132 9.73184,8.4552 9.73184,7.6208 C9.73184,6.7864 10.27824,6.1096 10.95184,6.1096 C11.62464,6.1096 12.17104,6.7864 12.17104,7.6208" id="Fill-13" fill="#000000"></path>
                <path d="M11.716,7.27704 C11.716,7.61384 11.4872,7.88744 11.2048,7.88744 C10.9224,7.88744 10.6936,7.61384 10.6936,7.27704 C10.6936,6.94104 10.9224,6.66824 11.2048,6.66824 C11.4872,6.66824 11.716,6.94104 11.716,7.27704" id="Fill-14" fill="#FFFFFF"></path>
                <path d="M15.16792,8.01336 C15.05352,8.01336 14.95272,7.93096 14.93192,7.81496 C14.91912,7.74216 14.91272,7.66616 14.91272,7.58856 C14.91272,6.95016 15.36552,6.43096 15.92152,6.43096 C16.47752,6.43096 16.93032,6.95016 16.93032,7.58856 C16.93032,7.64456 16.92712,7.69896 16.92072,7.75256 C16.90392,7.88376 16.78232,7.97656 16.65192,7.96056 C16.52072,7.94376 16.42792,7.82376 16.44392,7.69256 C16.44872,7.65896 16.45112,7.62376 16.45112,7.58856 C16.45112,7.21496 16.21352,6.91096 15.92152,6.91096 C15.62952,6.91096 15.39192,7.21496 15.39192,7.58856 C15.39192,7.63736 15.39672,7.68536 15.40472,7.73096 C15.42792,7.86216 15.34072,7.98616 15.21032,8.00936 C15.19592,8.01176 15.18232,8.01336 15.16792,8.01336" id="Fill-15" fill="#000000"></path>
                <path d="M8.05736,11.84736 C8.05736,11.84736 9.55656,13.13136 10.93576,13.51456 C12.54856,13.96256 14.87896,13.75136 15.76216,13.45536 C17.36776,12.91616 19.07416,11.75456 19.07416,11.75456 C19.07416,11.75456 17.56616,12.90816 16.01096,13.92496 C15.22936,14.43536 14.37336,15.16256 12.57176,14.77216 C12.11496,14.67376 11.29736,14.12016 11.03736,13.96976 C9.70616,13.19936 8.36936,12.15776 8.05736,11.84736" id="Fill-16" fill="#8A3322"></path>
                <path d="M9.71208,18.69032 L9.71208,23.03832 C9.71208,23.03832 7.91528,23.88872 6.30568,22.35272 C5.68888,21.76472 6.63608,17.57992 6.63608,17.57992 L9.71208,18.69032 Z" id="Fill-17" fill="#D42E19"></path>
                <path d="M6.39256,17.84968 L9.68616,20.48728 C9.68616,20.48728 9.74136,18.83848 9.67016,18.36888 C9.59816,17.90008 6.39256,17.61688 6.39256,17.61688" id="Fill-18" fill="#B82C22"></path>
                <path d="M13.4984,19.43168 C9.352,19.43168 5.4432,17.95808 2.3568,15.25728 C2.2816,15.19168 2.3048,14.98208 2.3048,14.98208 C2.3048,14.98208 2.4232,14.52288 2.62,13.42288 C2.7576,12.65408 3.0696,11.71088 3.2352,11.71088 C3.3408,11.79808 3.468,11.91408 3.5936,12.03168 C3.82,12.24368 4.0392,12.46208 4.1112,12.53008 C6.6664,14.92128 9.9768,16.23168 13.4984,16.23168 C17.0024,16.23168 20.324,14.92128 22.8792,12.53568 C22.9,12.51648 23.4544,13.23488 23.7032,13.96528 C23.9696,14.74768 24.2392,15.59888 23.9936,15.79328 C21.0136,18.15008 17.3456,19.43168 13.4984,19.43168" id="Fill-19" fill="#D42E19"></path>
            </g>
        </g>
    </g>
</svg>