<?xml version="1.0" encoding="UTF-8"?>
<svg width="48px" height="48px" viewBox="0 0 48 48" version="1.1" xmlns="http://www.w3.org/2000/svg" xmlns:xlink="http://www.w3.org/1999/xlink">
    <!-- Generator: Sketch 50.2 (55047) - http://www.bohemiancoding.com/sketch -->
    <title>Wechat</title>
    <desc>Created with Sketch.</desc>
    <defs></defs>
    <g id="Wechat" stroke="none" stroke-width="1" fill="none" fill-rule="evenodd">
        <g fill-rule="nonzero">
            <path d="M0,24 C0,10.7451654 10.7451654,0 24,0 C37.2548346,0 48,10.7451654 48,24 C48,37.2548346 37.2548346,48 24,48 C10.7451654,48 0,37.2548346 0,24 Z" id="back" fill="#45B035"></path>
            <g id="Group-5" transform="translate(8.000000, 11.200000)" fill="#FFFFFF">
                <path d="M7.4512,7.82 C6.5648,7.82 5.8464,7.1232 5.8464,6.2656 C5.8464,5.4072 6.5648,4.7128 7.4512,4.7128 C8.3376,4.7128 9.0576,5.4072 9.0576,6.2656 C9.0576,7.1232 8.3376,7.82 7.4512,7.82 M15.4048,4.7128 C16.2912,4.7128 17.0088,5.4072 17.0088,6.2656 C17.0088,7.1232 16.2912,7.82 15.4048,7.82 C14.5176,7.82 13.8008,7.1232 13.8008,6.2656 C13.8008,5.4072 14.5176,4.7128 15.4048,4.7128 M22.2424,8.0856 C22.404,8.0856 22.564,8.0872 22.7232,8.096 C21.8816,3.5096 17.1448,0 11.428,0 C5.116,0 0,4.2792 0,9.5576 C0,12.6528 1.7584,15.404 4.4856,17.1504 C4.5208,17.1728 4.5904,17.2168 4.5904,17.2168 L3.4864,20.6752 L7.6176,18.5712 C7.6176,18.5712 7.7472,18.608 7.812,18.6272 C8.9472,18.9432 10.1648,19.1144 11.428,19.1144 C11.6856,19.1144 11.9416,19.104 12.196,19.0912 C11.9616,18.364 11.8328,17.6 11.8328,16.8112 C11.8328,11.9912 16.4952,8.0856 22.2424,8.0856" id="Fill-1"></path>
                <path d="M17.61288,14.08568 C17.61288,13.36248 18.22088,12.77448 18.96888,12.77448 C19.71848,12.77448 20.32568,13.36248 20.32568,14.08568 C20.32568,14.81208 19.71848,15.40088 18.96888,15.40088 C18.22088,15.40088 17.61288,14.81208 17.61288,14.08568 M24.33208,14.08568 C24.33208,13.36248 24.93848,12.77448 25.68728,12.77448 C26.43688,12.77448 27.04328,13.36248 27.04328,14.08568 C27.04328,14.81208 26.43688,15.40088 25.68728,15.40088 C24.93848,15.40088 24.33208,14.81208 24.33208,14.08568 M12.67288,16.86728 C12.67288,21.32728 16.99688,24.94248 22.32968,24.94248 C23.39608,24.94248 24.42488,24.79688 25.38328,24.52888 C25.43848,24.51448 25.54808,24.48168 25.54808,24.48168 L29.03688,26.26088 L28.10408,23.33768 C28.10408,23.33768 28.16328,23.30088 28.19288,23.28248 C30.49608,21.80728 31.98248,19.48328 31.98248,16.86728 C31.98248,12.40888 27.66008,8.79368 22.32968,8.79368 C16.99688,8.79368 12.67288,12.40888 12.67288,16.86728" id="Fill-2"></path>
            </g>
        </g>
    </g>
</svg>